<svg width="512" height="512" viewBox="0 0 512 512" xmlns="http://www.w3.org/2000/svg">
  <!-- Fond avec gradient violet -->
  <defs>
    <linearGradient id="bgGradient" x1="0%" y1="0%" x2="100%" y2="100%">
      <stop offset="0%" style="stop-color:#8b5cf6;stop-opacity:1" />
      <stop offset="100%" style="stop-color:#6366f1;stop-opacity:1" />
    </linearGradient>
  </defs>
  
  <!-- Fond arrondi -->
  <rect width="512" height="512" rx="120" fill="url(#bgGradient)"/>
  
  <!-- Sparkles centré et agrandi -->
  <g transform="translate(256, 256) scale(12, 12)">
    <path d="M -2.063 3.5 A 2 2 0 0 0 -3.5 2.063 l -6.135 -1.582 a 0.5 0.5 0 0 1 0 -0.962 L -3.5 -2.064 A 2 2 0 0 0 -2.063 -3.5 l 1.582 -6.135 a 0.5 0.5 0 0 1 0.963 0 L 2.063 -3.5 A 2 2 0 0 0 3.5 -2.063 l 6.135 1.581 a 0.5 0.5 0 0 1 0 0.964 L 3.5 2.063 a 2 2 0 0 0 -1.437 1.437 l -1.582 6.135 a 0.5 0.5 0 0 1 -0.963 0 z" 
          fill="none" 
          stroke="white" 
          stroke-width="1.5" 
          stroke-linecap="round" 
          stroke-linejoin="round"/>
    <path d="M 8 -9 v 4" 
          stroke="white" 
          stroke-width="1.5" 
          stroke-linecap="round"/>
    <path d="M 10 -7 h -4" 
          stroke="white" 
          stroke-width="1.5" 
          stroke-linecap="round"/>
    <path d="M -8 5 v 2" 
          stroke="white" 
          stroke-width="1.5" 
          stroke-linecap="round"/>
    <path d="M -7 6 H -9" 
          stroke="white" 
          stroke-width="1.5" 
          stroke-linecap="round"/>
  </g>
</svg> 