<svg width="32" height="32" viewBox="0 0 32 32" xmlns="http://www.w3.org/2000/svg">
  <!-- Fond blanc -->
  <rect width="32" height="32" fill="#ffffff"/>

  <!-- Sparkles noir sur fond blanc -->
  <g transform="translate(16, 16)">
    <path d="M -2.063 3.5 A 2 2 0 0 0 -3.5 2.063 l -6.135 -1.582 a 0.5 0.5 0 0 1 0 -0.962 L -3.5 -2.064 A 2 2 0 0 0 -2.063 -3.5 l 1.582 -6.135 a 0.5 0.5 0 0 1 0.963 0 L 2.063 -3.5 A 2 2 0 0 0 3.5 -2.063 l 6.135 1.581 a 0.5 0.5 0 0 1 0 0.964 L 3.5 2.063 a 2 2 0 0 0 -1.437 1.437 l -1.582 6.135 a 0.5 0.5 0 0 1 -0.963 0 z"
          fill="none"
          stroke="#000000"
          stroke-width="1.5"
          stroke-linecap="round"
          stroke-linejoin="round"/>
    <path d="M 8 -9 v 4"
          stroke="#000000"
          stroke-width="1.5"
          stroke-linecap="round"/>
    <path d="M 10 -7 h -4"
          stroke="#000000"
          stroke-width="1.5"
          stroke-linecap="round"/>
    <path d="M -8 5 v 2"
          stroke="#000000"
          stroke-width="1.5"
          stroke-linecap="round"/>
    <path d="M -7 6 H -9"
          stroke="#000000"
          stroke-width="1.5"
          stroke-linecap="round"/>
  </g>
</svg>