<svg xmlns="http://www.w3.org/2000/svg" viewBox="0 0 512 512" width="512" height="512">
  <defs>
    <linearGradient id="bgGradient" x1="0%" y1="0%" x2="100%" y2="100%">
      <stop offset="0%" stop-color="#8b5cf6" />
      <stop offset="100%" stop-color="#6366f1" />
    </linearGradient>
  </defs>
  
  <!-- Fond arrondi avec gradient violet -->
  <rect width="512" height="512" rx="102" fill="url(#bgGradient)" />
  
  <!-- Étoile principale uniquement - remplie en blanc, plus grande -->
  <g transform="translate(256, 256) scale(15) translate(-12, -12)">
    <path 
      d="M9.937 15.5A2 2 0 0 0 8.5 14.063l-6.135-1.582a.5.5 0 0 1 0-.962L8.5 9.936A2 2 0 0 0 9.937 8.5l1.582-6.135a.5.5 0 0 1 .963 0L14.063 8.5A2 2 0 0 0 15.5 9.937l6.135 1.581a.5.5 0 0 1 0 .964L15.5 14.063a2 2 0 0 0-1.437 1.437l-1.582 6.135a.5.5 0 0 1-.963 0z"
      fill="white"
      stroke="white"
      stroke-width="0.5"
      stroke-linecap="round"
      stroke-linejoin="round"
    />
  </g>
</svg>
